<svg width="141" height="13" viewBox="0 0 141 13" fill="none" xmlns="http://www.w3.org/2000/svg">
<path d="M140.238 6.55782C140.693 7.11414 140.946 7.8559 140.946 8.79996C140.946 9.7103 140.592 10.4858 139.917 11.1601C139.209 11.8176 138.383 12.1379 137.422 12.1379C135.517 12.1379 134.118 10.9578 134.118 10.9578V9.20455C134.118 9.20455 135.922 10.5363 137.271 10.5363C137.827 10.5363 138.299 10.3678 138.67 10.0306C139.041 9.65972 139.226 9.23827 139.226 8.73252C139.226 8.46279 139.193 8.22678 139.108 8.04134C139.024 7.83904 138.906 7.67046 138.754 7.53559C138.552 7.38387 138.299 7.23215 137.979 7.06357C137.675 6.91184 137.304 6.76012 136.849 6.6084C135.905 6.28809 135.197 5.8835 134.725 5.41147C134.472 5.14174 134.27 4.83829 134.152 4.46741C134.034 4.11339 133.983 3.72565 133.983 3.3042C133.983 2.30957 134.321 1.58467 135.029 0.944056C135.703 0.303447 136.546 0 137.524 0C138.198 0 138.805 0.118008 139.327 0.320305C140.019 0.590036 140.373 0.82605 140.373 0.82605V2.66359C140.373 2.66359 139.243 1.61838 137.591 1.61838C137.052 1.61838 136.613 1.77011 136.242 2.09041C135.888 2.46129 135.703 2.83217 135.703 3.27048C135.703 3.52335 135.754 3.72565 135.804 3.91109C135.888 4.06281 135.99 4.21454 136.108 4.31569C136.411 4.58542 136.967 4.88886 137.776 5.19231C138.367 5.39461 138.855 5.59691 139.243 5.81606C139.665 6.03522 140.002 6.28809 140.238 6.55782Z" fill="white"/>
<path d="M125.063 10.4521H129.801V11.9861H123.428V2.59615L124.743 0.168579H129.683V1.66896H125.063V5.25974H129.548V6.77698H125.063V10.4521Z" fill="white"/>
<path d="M118.929 2.07355C119.114 2.51186 119.182 2.98389 119.182 3.50649C119.182 4.0291 119.08 4.48427 118.912 4.90572C118.726 5.34403 118.44 5.69805 118.052 6.0015C117.361 6.55782 116.383 6.84441 115.186 6.84441H113.382V11.9861H111.747V2.59615L113.062 0.168579H115.287C115.844 0.168579 116.383 0.236012 116.872 0.387735C117.327 0.522601 117.765 0.724899 118.103 1.01149C118.457 1.28122 118.743 1.6521 118.929 2.07355ZM117.31 4.28197C117.411 4.06281 117.479 3.80994 117.479 3.50649C117.479 3.20305 117.411 2.96703 117.327 2.73102C117.226 2.51186 117.091 2.34328 116.906 2.19156C116.687 2.03984 116.467 1.88811 116.181 1.82068C115.911 1.73639 115.591 1.68581 115.203 1.68581H113.382V5.31032H115.119C115.911 5.31032 116.501 5.15859 116.889 4.83829C117.074 4.68656 117.209 4.51798 117.31 4.28197Z" fill="white"/>
<path d="M105.56 1.75323C106.757 2.93331 107.363 4.36625 107.363 6.10264C107.363 7.78845 106.757 9.23825 105.56 10.4015C104.346 11.5815 102.879 12.1547 101.126 12.1547C99.339 12.1547 97.8555 11.5815 96.6754 10.4352C95.4616 9.25511 94.8716 7.80531 94.8716 6.10264C94.8716 4.36625 95.4616 2.91645 96.6585 1.77009C97.8386 0.606881 99.339 0.0168457 101.126 0.0168457C102.862 0.0168457 104.346 0.60688 105.56 1.75323ZM104.312 9.23825C105.189 8.36163 105.627 7.31643 105.627 6.10264C105.627 4.87199 105.189 3.82679 104.312 2.93331C103.419 2.07354 102.373 1.63523 101.126 1.63523C99.8616 1.63523 98.7827 2.07354 97.906 2.93331C97.0294 3.80993 96.5911 4.87199 96.5911 6.10264C96.5911 7.33328 97.0294 8.37849 97.906 9.23825C98.7658 10.1317 99.8279 10.5532 101.126 10.5532C102.373 10.5532 103.419 10.1317 104.312 9.23825Z" fill="white"/>
<path d="M86.9263 10.4521H91.7983V11.9861H86.5723L85.2573 9.55857V0.168579H86.9263V10.4521Z" fill="white"/>
<path d="M72.13 1.75323C73.3269 2.93331 73.9338 4.36625 73.9338 6.10264C73.9338 7.78845 73.3269 9.23825 72.13 10.4015C70.9162 11.5815 69.4495 12.1547 67.6963 12.1547C65.9093 12.1547 64.4258 11.5815 63.2457 10.4352C62.0319 9.25511 61.4419 7.80531 61.4419 6.10264C61.4419 4.36625 62.0319 2.91645 63.2289 1.77009C64.4089 0.606881 65.9093 0.0168457 67.6963 0.0168457C69.4327 0.0168457 70.9162 0.60688 72.13 1.75323ZM70.8825 9.23825C71.7591 8.36163 72.1974 7.31643 72.1974 6.10264C72.1974 4.87199 71.7591 3.82679 70.8825 2.93331C69.989 2.07354 68.9438 1.63523 67.6963 1.63523C66.4319 1.63523 65.353 2.07354 64.4764 2.93331C63.5997 3.80993 63.1614 4.87199 63.1614 6.10264C63.1614 7.33328 63.5997 8.37849 64.4764 9.23825C65.3361 10.1317 66.3982 10.5532 67.6963 10.5532C68.9438 10.5532 69.989 10.1317 70.8825 9.23825Z" fill="white"/>
<path d="M53.4966 10.4521H58.3686V11.9861H53.1426L51.8276 9.55857V0.168579H53.4966V10.4521Z" fill="white"/>
<path d="M47.5157 1.66897H45.7793V10.4521H47.5157V11.9693H42.4077V10.4521H44.1272V1.66897H42.4077V0.151733H47.5157V1.66897Z" fill="white"/>
<path d="M36.3635 0.168579H38.0156V11.9861H36.1781L29.8057 2.61301V11.9861H28.1367V2.59615H29.7888L28.1367 0.168579H29.9574L36.3635 9.54171V0.168579Z" fill="white"/>
<path d="M19.2202 0.168579L23.7382 11.9861H21.9681L20.67 8.5808H16.0003L14.6854 11.9861H12.9321L16.5229 2.59615H18.2762L16.5735 7.06356H20.0968L17.4501 0.168579H19.2202Z" fill="white"/>
<path d="M9.35627 3.6245C9.65972 4.3494 9.79459 5.15859 9.79459 6.05208C9.79459 7.78847 9.23827 9.22141 8.14249 10.334C7.58617 10.8904 6.91184 11.295 6.15323 11.5815C5.39461 11.8344 4.51798 11.9861 3.55707 11.9861H0V2.59615L1.31494 0.168579H3.45592C4.41684 0.168579 5.25974 0.286587 6.03522 0.539459C6.79384 0.80919 7.48502 1.21379 8.0582 1.73639C8.64823 2.27585 9.06969 2.8996 9.35627 3.6245ZM6.77698 9.25512C7.63674 8.46279 8.0582 7.38387 8.0582 6.06893C8.0582 4.754 7.63674 3.70879 6.79384 2.88274C5.95093 2.07355 4.82143 1.66896 3.37163 1.66896H1.66896V10.4521H3.33791C4.78771 10.4521 5.93407 10.0475 6.77698 9.25512Z" fill="white"/>
</svg>
